<?xml version="1.0" encoding="UTF-8"?>
<svg id="_レイヤー_1" data-name="レイヤー 1" xmlns="http://www.w3.org/2000/svg" viewBox="0 0 1920 1080">
  <defs>
    <style>
      .cls-1, .cls-2, .cls-3 {
        fill: #fff;
      }

      .cls-2 {
        font-size: 16px;
        opacity: .5;
      }

      .cls-2, .cls-3 {
        font-family: NotoMesloJP-Regular, 'Noto Meslo JP';
      }

      .cls-3 {
        font-size: 24px;
      }
    </style>
  </defs>
  <rect width="1920" height="1080"/>
  <g>
    <path class="cls-1" d="M926.47,422.84v218.41h-105v-22.5h82.5v-40.27l-75.93-25.39-88.16,88.16h-195.91v-206.87l278.01,92.96,104.49-104.49M566.47,618.75h164.09l73.64-73.64-237.73-79.49v153.13M903.97,554.75v-77.59l-58.15,58.15,58.15,19.44M930.47,413.18l-6.83,6.83-102.74,102.74-275.66-92.17-5.27-1.76v216.43h201.57l1.17-1.17,86.41-86.41,70.85,23.69v33.39h-82.5v30.5h113v-232.07h0ZM570.47,614.75v-143.57l226.33,75.68-67.89,67.89h-158.43ZM853.22,533.56l46.75-46.75v62.38l-46.75-15.63h0Z"/>
    <g>
      <path class="cls-1" d="M1103.75,438.75c16.79,0,31.73,4.09,44.82,12.26s23.4,19.8,30.92,34.87,11.27,33.02,11.27,53.85-3.76,38.65-11.27,53.72-17.82,26.67-30.92,34.8-28.04,12.19-44.82,12.19-31.75-4.06-44.89-12.19-23.49-19.73-31.05-34.8-11.34-32.98-11.34-53.72,3.78-38.78,11.34-53.85,17.91-26.7,31.05-34.87,28.1-12.26,44.89-12.26M1103.75,617.26c11.69,0,22.26-2.97,31.71-8.9s16.96-14.68,22.54-26.24,8.37-25.69,8.37-42.39-2.79-31.09-8.37-42.65c-5.58-11.56-13.1-20.3-22.54-26.24s-20.02-8.9-31.71-8.9-22.41,2.99-31.9,8.96-17.03,14.74-22.61,26.3-8.37,25.73-8.37,42.52,2.79,30.81,8.37,42.32,13.12,20.26,22.61,26.24,20.13,8.96,31.9,8.96M1103.75,434.75c-17.47,0-33.28,4.33-47,12.86-13.71,8.53-24.65,20.8-32.51,36.47-7.8,15.56-11.76,34.29-11.76,55.65s3.96,39.95,11.76,55.52c7.86,15.67,18.8,27.93,32.52,36.41,13.72,8.49,29.53,12.79,46.99,12.79s33.26-4.31,46.93-12.8c13.67-8.49,24.57-20.74,32.39-36.42,7.76-15.56,11.69-34.24,11.69-55.51s-3.93-40.08-11.69-55.64c-7.81-15.67-18.71-27.95-32.38-36.48-13.68-8.54-29.47-12.87-46.94-12.87h0ZM1103.75,613.26c-10.96,0-20.97-2.81-29.77-8.35-8.8-5.54-15.92-13.82-21.14-24.6-5.29-10.91-7.97-24.56-7.97-40.57s2.68-29.82,7.97-40.78c5.22-10.82,12.34-19.11,21.14-24.66,8.8-5.54,18.82-8.35,29.77-8.35s20.82,2.79,29.58,8.29c8.76,5.5,15.85,13.77,21.07,24.59,5.29,10.96,7.97,24.72,7.97,40.91s-2.68,29.69-7.97,40.65c-5.22,10.82-12.31,19.09-21.07,24.59-8.76,5.5-18.71,8.29-29.58,8.29h0Z"/>
      <path class="cls-1" d="M1295.17,438.75c12.92,0,24.35,2.29,34.28,6.86s17.78,10.79,23.53,18.65,8.81,16.77,9.16,26.7h-24.52c-1.14-9.58-5.71-16.98-13.71-22.21s-17.84-7.84-29.53-7.84c-8.44,0-15.84,1.38-22.21,4.15-6.37,2.77-11.32,6.55-14.83,11.34-3.52,4.79-5.27,10.26-5.27,16.41,0,6.86,2.13,12.37,6.39,16.55,4.26,4.17,9.32,7.43,15.16,9.76s11.14,4.15,15.89,5.47l19.64,5.41c5.27,1.41,11.1,3.34,17.47,5.8s12.46,5.73,18.26,9.82,10.57,9.27,14.3,15.56,5.6,14,5.6,23.14c0,10.72-2.79,20.39-8.37,29s-13.69,15.42-24.32,20.43-23.51,7.51-38.63,7.51c-14.15,0-26.43-2.29-36.85-6.86s-18.57-10.96-24.46-19.18-9.23-17.82-10.02-28.81h25.71c.7,7.38,3.21,13.47,7.51,18.26s9.82,8.35,16.55,10.68,13.91,3.49,21.56,3.49c8.88,0,16.85-1.45,23.93-4.35s12.68-6.99,16.81-12.26,6.2-11.38,6.2-18.33c0-6.33-1.78-11.47-5.34-15.42s-8.28-7.21-14.17-9.76-12.35-4.79-19.38-6.72l-23.73-6.72c-15.82-4.48-28.12-10.9-36.91-19.25s-13.18-19.03-13.18-32.04c0-11.07,2.99-20.76,8.96-29.07,5.98-8.31,14.06-14.74,24.26-19.31s21.62-6.86,34.28-6.86M1295.17,434.75c-13.16,0-25.25,2.42-35.91,7.21-10.8,4.84-19.5,11.78-25.87,20.63-6.45,8.96-9.72,19.53-9.72,31.41,0,14.09,4.85,25.84,14.43,34.94,9.22,8.76,22.2,15.56,38.58,20.2l23.73,6.72c6.85,1.88,13.19,4.08,18.88,6.55,5.33,2.31,9.63,5.25,12.79,8.76,2.9,3.22,4.31,7.39,4.31,12.75,0,6.08-1.75,11.27-5.35,15.86-3.68,4.7-8.79,8.41-15.18,11.03-6.56,2.69-14.1,4.05-22.41,4.05-7.16,0-13.98-1.1-20.25-3.27-6.05-2.09-11.05-5.32-14.88-9.57-3.75-4.17-5.88-9.4-6.51-15.96l-.34-3.62h-33.64l.31,4.29c.84,11.68,4.46,22.06,10.76,30.85,6.29,8.77,15.07,15.67,26.1,20.52,10.88,4.77,23.81,7.19,38.46,7.19,15.64,0,29.21-2.66,40.33-7.9,11.27-5.31,20.01-12.67,25.98-21.88,5.98-9.23,9.01-19.72,9.01-31.18,0-9.83-2.07-18.3-6.16-25.18-4.01-6.74-9.2-12.39-15.44-16.78-6.04-4.26-12.47-7.72-19.12-10.28-6.48-2.5-12.49-4.5-17.88-5.93l-19.61-5.4c-4.58-1.27-9.78-3.07-15.47-5.33-5.32-2.12-9.98-5.11-13.84-8.9-3.49-3.42-5.19-7.9-5.19-13.69,0-5.33,1.47-9.92,4.5-14.05,3.07-4.19,7.52-7.57,13.2-10.04,5.84-2.54,12.77-3.82,20.62-3.82,10.84,0,20.04,2.42,27.34,7.19,7.02,4.59,10.92,10.92,11.93,19.34l.42,3.53h32.22l-.15-4.14c-.38-10.7-3.72-20.43-9.93-28.92-6.14-8.39-14.58-15.09-25.09-19.93-10.41-4.79-22.51-7.22-35.95-7.22h0Z"/>
    </g>
  </g>
  <text class="cls-2" transform="translate(834.77 992.53)"><tspan x="0" y="0">Copyright (c) 2026 Nercone</tspan></text>
  <text class="cls-3" transform="translate(345.91 963.79)"><tspan x="0" y="0">NerconeOS: New and Modern Open-source Operating System, Made by Nercone for Everyone.</tspan></text>
</svg>