<?xml version="1.0" encoding="UTF-8"?>
<svg id="_レイヤー_1" data-name="レイヤー 1" xmlns="http://www.w3.org/2000/svg" viewBox="0 0 1920 1080">
  <defs>
    <style>
      .cls-1 {
        font-size: 24px;
        opacity: .5;
      }

      .cls-1, .cls-2 {
        font-family: NotoMesloJP-Regular, 'Noto Meslo JP';
      }

      .cls-3 {
        fill: #fff;
      }

      .cls-2 {
        font-size: 16px;
        opacity: .25;
      }

      .cls-4 {
        fill: #1a1a1a;
      }
    </style>
  </defs>
  <rect class="cls-4" width="1920" height="1080"/>
  <text class="cls-2" transform="translate(834.77 992.53)"><tspan x="0" y="0">Copyright (c) 2026 Nercone</tspan></text>
  <text class="cls-1" transform="translate(345.91 963.79)"><tspan x="0" y="0">NerconeOS: New and Modern Open-source Operating System, Made by Nercone for Everyone.</tspan></text>
  <g>
    <path class="cls-3" d="M923.71,652.04h-115.38v-24.72h90.66v-44.26l-83.43-27.9-96.88,96.88h-215.28v-227.32l305.49,102.15,114.82-114.82v240ZM528.13,627.32h180.31l80.92-80.92-261.23-87.35v168.26ZM835.09,535.63l63.9,21.37v-85.26l-63.9,63.9Z"/>
    <g>
      <path class="cls-3" d="M1118.51,651.18c-18.45,0-34.89-4.47-49.33-13.4-14.44-8.93-25.81-21.68-34.12-38.25-8.31-16.56-12.46-36.24-12.46-59.03s4.15-42.62,12.46-59.18c8.31-16.56,19.68-29.34,34.12-38.32,14.44-8.98,30.88-13.47,49.33-13.47s34.86,4.49,49.26,13.47c14.39,8.98,25.71,21.75,33.97,38.32,8.26,16.56,12.39,36.29,12.39,59.18s-4.13,42.47-12.39,59.03c-8.26,16.56-19.58,29.31-33.97,38.25-14.39,8.93-30.81,13.4-49.26,13.4ZM1118.51,625.68c12.84,0,24.46-3.26,34.84-9.78,10.38-6.52,18.64-16.13,24.77-28.83,6.13-12.7,9.2-28.23,9.2-46.58s-3.07-34.16-9.2-46.86c-6.13-12.7-14.39-22.31-24.77-28.83-10.38-6.52-22-9.78-34.84-9.78s-24.63,3.28-35.06,9.85-18.71,16.2-24.84,28.9c-6.13,12.7-9.2,28.27-9.2,46.72s3.07,33.85,9.2,46.5c6.13,12.65,14.41,22.26,24.84,28.83s22.12,9.85,35.06,9.85Z"/>
      <path class="cls-3" d="M1326.98,652.04c-15.55,0-29.05-2.51-40.49-7.53-11.44-5.02-20.4-12.05-26.87-21.08s-10.14-19.58-11.01-31.65h28.25c.77,8.11,3.53,14.8,8.26,20.06s10.79,9.17,18.18,11.73c7.39,2.56,15.28,3.84,23.69,3.84,9.75,0,18.52-1.59,26.29-4.78,7.77-3.19,13.93-7.68,18.47-13.47,4.54-5.79,6.81-12.51,6.81-20.14,0-6.95-1.96-12.6-5.87-16.95-3.91-4.35-9.1-7.92-15.57-10.72s-13.57-5.26-21.3-7.39l-26.08-7.39c-17.38-4.93-30.91-11.98-40.56-21.15-9.66-9.17-14.49-20.91-14.49-35.2,0-12.17,3.28-22.82,9.85-31.94s15.45-16.2,26.66-21.22c11.2-5.02,23.76-7.53,37.67-7.53s26.75,2.51,37.67,7.53,19.53,11.86,25.86,20.5c6.33,8.64,9.68,18.42,10.07,29.34h-26.95c-1.26-10.53-6.28-18.66-15.07-24.41-8.79-5.75-19.61-8.62-32.45-8.62-9.27,0-17.41,1.52-24.41,4.56s-12.43,7.2-16.3,12.46c-3.86,5.26-5.79,11.28-5.79,18.04,0,7.53,2.34,13.59,7.03,18.18,4.68,4.59,10.24,8.16,16.66,10.72s12.24,4.56,17.46,6.01l21.59,5.94c5.79,1.55,12.19,3.67,19.19,6.37,7,2.7,13.69,6.3,20.06,10.79,6.37,4.49,11.61,10.19,15.72,17.09,4.1,6.91,6.16,15.38,6.16,25.42,0,11.78-3.07,22.41-9.2,31.87s-15.04,16.95-26.73,22.45c-11.69,5.5-25.83,8.26-42.45,8.26Z"/>
    </g>
  </g>
</svg>