<?xml version="1.0" encoding="UTF-8"?>
<svg id="_レイヤー_1" data-name="レイヤー 1" xmlns="http://www.w3.org/2000/svg" viewBox="0 0 1024 1024">
  <defs>
    <style>
      .cls-1 {
        fill: #fff;
      }

      .cls-2 {
        fill: #202020;
      }
    </style>
  </defs>
  <rect class="cls-2" width="1024" height="1024"/>
  <path class="cls-1" d="M832,329.28v365.44h-175.69v-37.65h138.04v-67.39l-127.04-42.48-147.51,147.51H192v-346.14l465.16,155.54,174.84-174.84M229.65,657.08h274.56l123.21-123.21-397.76-133v256.21M794.35,549.99v-129.83l-97.29,97.29,97.29,32.53M856,271.34l-40.97,40.97-164.34,164.34-451.08-150.83-31.61-10.57v403.47h361.74l7.03-7.03,137.01-137.02,96.57,32.29v26.11h-138.04v85.65h223.69v-447.39h0ZM253.65,633.08v-198.88l329.36,110.13-88.75,88.75h-240.62ZM741.46,507l28.89-28.89v38.55l-28.89-9.66h0Z"/>
</svg>